{"title":"Lila.And.Eve.2015.WEBRip.480p.x264.AAC-VYTO [P2PDL]","uid":12170185,"size":347660045,"categoryP":"video","categoryS":"movies","magnet":"?xt=urn:btih:3d1582278247c8c6b9549a309b781b6f21047081&amp;dn=Lila.And.Eve.2015.WEBRip.480p.x264.AAC-VYTO+%5BP2PDL%5D&amp;tr=udp%3A%2F%2Ftracker.openbittorrent.com%3A80&amp;tr=udp%3A%2F%2Fopen.demonii.com%3A1337&amp;tr=udp%3A%2F%2Ftracker.coppersurfer.tk%3A6969&amp;tr=udp%3A%2F%2Fexodus.desync.com%3A6969","seeders":1,"leechers":1,"uploader":"ValidusVyto","files":7,"time":1438149908,"description":"____    ____ ____    ____ .___________.  ______   \n     /   /      /   / |           | /  __    \n    /   /      /   /  `---|  |----`|  |  |  | \n        /     _    _/       |  |     |  |  |  | \n       /        |  |         |  |     |  `--'  | \n    __/         |__|         |__|      ______/  \n                                                  \nPresenting Small Encodes with quality for years!\n                                                                                                   \n                                                                                                   \n\nLila.And.Eve.2015.WEBRip.480p.x264.AAC-VYTO\n\n\nGenre: Drama, Thriller &lt;a href=&quot;\nhttp://www.imdb.com/title/tt3442990/&quot; rel=&quot;nofollow&quot; target=&quot;_NEW&quot;&gt;\nhttp://www.imdb.com/title/tt3442990/&lt;/a&gt;\n\n\nGeneral\nFormat                         : MPEG-4\nFile size                      : 326 MiB\nDuration                       : 1h 34mn\nOverall bit rate               : 484 Kbps\n\nVideo\nFormat                         : AVC\nBit rate                       : 449 Kbps\nWidth                          : 720 pixels\nHeight                         : 384 pixels\nDisplay aspect ratio           : 1.85:1\nFrame rate mode                : Constant\nFrame rate                     : 23.976 fps\nBit depth                      : 8 bits\nStream size                    : 302 MiB (93%)\nWriting library                : x264 core 146 r2538 121396c\n\nAudio\nFormat                         : AAC\nBit rate mode                  : Variable\nBit rate                       : 32.0 Kbps\nChannel(s)                     : 2 channels\nChannel positions              : Front: L R \nSampling rate                  : 48.0 KHz \nStream size                    : 21.6 MiB (7%)\nLanguage                       : English\n\nSubtitle                       : Yes (English)\nSource                         : 720p.WEB-DL.DD5.1.H264\n\n\nScreenshots:\n &lt;a href=&quot;\nhttp://ititli.com/1s&quot; rel=&quot;nofollow&quot; target=&quot;_NEW&quot;&gt;\nhttp://ititli.com/1s&lt;/a&gt; &lt;a href=&quot;\nhttp://ititli.com/1Y&quot; rel=&quot;nofollow&quot; target=&quot;_NEW&quot;&gt;\nhttp://ititli.com/1Y&lt;/a&gt; &lt;a href=&quot;\nhttp://ititli.com/14&quot; rel=&quot;nofollow&quot; target=&quot;_NEW&quot;&gt;\nhttp://ititli.com/14&lt;/a&gt; &lt;a href=&quot;\nhttp://ititli.com/1K&quot; rel=&quot;nofollow&quot; target=&quot;_NEW&quot;&gt;\nhttp://ititli.com/1K&lt;/a&gt; &lt;a href=&quot;\nhttp://ititli.com/1V&quot; rel=&quot;nofollow&quot; target=&quot;_NEW&quot;&gt;\nhttp://ititli.com/1V&lt;/a&gt; &lt;a href=&quot;\nhttp://ititli.com/1t&quot; rel=&quot;nofollow&quot; target=&quot;_NEW&quot;&gt;\nhttp://ititli.com/1t&lt;/a&gt; &lt;a href=&quot;\nhttp://ititli.com/1L&quot; rel=&quot;nofollow&quot; target=&quot;_NEW&quot;&gt;\nhttp://ititli.com/1L&lt;/a&gt; &lt;a href=&quot;\nhttp://ititli.com/1d&quot; rel=&quot;nofollow&quot; target=&quot;_NEW&quot;&gt;\nhttp://ititli.com/1d&lt;/a&gt; &lt;a href=&quot;\nhttp://ititli.com/10&quot; rel=&quot;nofollow&quot; target=&quot;_NEW&quot;&gt;\nhttp://ititli.com/10&lt;/a&gt; &lt;a href=&quot;\nhttp://ititli.com/1A&quot; rel=&quot;nofollow&quot; target=&quot;_NEW&quot;&gt;\nhttp://ititli.com/1A&lt;/a&gt; &lt;a href=&quot;\nhttp://ititli.com/1l&quot; rel=&quot;nofollow&quot; target=&quot;_NEW&quot;&gt;\nhttp://ititli.com/1l&lt;/a&gt; &lt;a href=&quot;\nhttp://ititli.com/1m&quot; rel=&quot;nofollow&quot; target=&quot;_NEW&quot;&gt;\nhttp://ititli.com/1m&lt;/a&gt;\n\n----------------------------------------------------------------------------------------------------\n\n\nEncoder Notes: Looking For Early Access To Anything You Can Provide DVDScr, R5, DVDR, BluRay, Direct\nAudio, Music Releases and Seedboxes. If You Got anything to offer please contact us.\n\nSupport us by donating BC - 1FgwdzPsd1y25Gea8wP1qni35uGCtmkRCD","torrent":{"xt":"urn:btih:3d1582278247c8c6b9549a309b781b6f21047081","amp;dn":"Lila.And.Eve.2015.WEBRip.480p.x264.AAC-VYTO+%5BP2PDL%5D","amp;tr":["udp%3A%2F%2Ftracker.openbittorrent.com%3A80","udp%3A%2F%2Fopen.demonii.com%3A1337","udp%3A%2F%2Ftracker.coppersurfer.tk%3A6969","udp%3A%2F%2Fexodus.desync.com%3A6969"],"infoHash":"3d1582278247c8c6b9549a309b781b6f21047081","infoHashBuffer":{"type":"Buffer","data":[61,21,130,39,130,71,200,198,185,84,154,48,155,120,27,111,33,4,112,129]},"announce":[],"urlList":[]}}